<?xml version="1.0" encoding="UTF-8" standalone="no"?>
<!-- Generated by IcoMoon.io -->

<svg
   xmlns:dc="http://purl.org/dc/elements/1.1/"
   xmlns:cc="http://creativecommons.org/ns#"
   xmlns:rdf="http://www.w3.org/1999/02/22-rdf-syntax-ns#"
   xmlns:svg="http://www.w3.org/2000/svg"
   xmlns="http://www.w3.org/2000/svg"
   xmlns:sodipodi="http://sodipodi.sourceforge.net/DTD/sodipodi-0.dtd"
   xmlns:inkscape="http://www.inkscape.org/namespaces/inkscape"
   viewBox="0 0 53 32"
   version="1.1"
   id="svg10"
   sodipodi:docname="app-icon.svg"
   inkscape:version="0.92.4 (5da689c313, 2019-01-14)">
  <metadata
     id="metadata16">
    <rdf:RDF>
      <cc:Work
         rdf:about="">
        <dc:format>image/svg+xml</dc:format>
        <dc:type
           rdf:resource="http://purl.org/dc/dcmitype/StillImage" />
      </cc:Work>
    </rdf:RDF>
  </metadata>
  <defs
     id="defs14" />
  <sodipodi:namedview
     pagecolor="#ffffff"
     bordercolor="#666666"
     borderopacity="1"
     objecttolerance="10"
     gridtolerance="10"
     guidetolerance="10"
     inkscape:pageopacity="0"
     inkscape:pageshadow="2"
     inkscape:window-width="1076"
     inkscape:window-height="640"
     id="namedview12"
     showgrid="false"
     inkscape:zoom="5.9811321"
     inkscape:cx="5.4337539"
     inkscape:cy="16"
     inkscape:window-x="0"
     inkscape:window-y="30"
     inkscape:window-maximized="0"
     inkscape:current-layer="svg10" />
  <title
     id="title2">title</title>
  <path
     fill="#ffde58"
     d="M21.382 0.355c0 0-0 0-0 0-6.2 0-11.225 5.026-11.225 11.225 0 0 0 0     0 0v0c0 0 0 0 0 0 0 6.2 5.026 11.225 11.225 11.225 0 0 0 0 0     0v0c1.847-0.007 3.588-0.459 5.121-1.254l-0.062     0.029c-3.666-1.898-6.128-5.662-6.128-10.001v-0c0.005-4.341 2.474-8.104     6.083-9.968l0.063-0.029c-1.476-0.77-3.223-1.223-5.075-1.228h-0.002z"
     id="path4" />
  <path
     fill="#f2f2f2"
     opacity="0.944444"
     d="M40.32 9.788c-2.918 0.001-5.376 2.070-6.122 4.89l-0.011     0.047c-0.797-2.801-3.224-4.808-6.096-4.81h-0c-3.371 0.001-6.129     2.763-6.342 6.254l-0.001     0.020c-1.093-0.968-2.516-1.557-4.070-1.559h-0c0 0-0 0-0 0-3.511     0-6.357 2.995-6.357 6.689v0c0 0 0 0 0 0 0 3.695 2.846 6.689 6.357     6.689 0 0 0 0 0 0v0c0.86-0.002 1.68-0.183 2.427-0.51l-0.042     0.016c1.046 2.267 3.216 3.802 5.727 3.806h0c1.995-0.001 3.775-0.969     4.94-2.483l0.009-0.013c1.163 1.748 3.067 2.877 5.221     2.878h0c2.427-0.002 4.535-1.434 5.605-3.539l0.017-0.036c1.17 1.411     2.882 2.299 4.791 2.301h0c0 0 0 0 0 0 3.511 0 6.357-2.995 6.357-6.689     0-0 0-0     0-0v0c-0.002-3.591-2.693-6.521-6.069-6.679l-0.014-0c0.017-0.173     0.027-0.376 0.029-0.581l0-0.003c0-0 0-0 0-0     0-3.694-2.846-6.689-6.357-6.689 0 0 0 0-0 0v0zM34.224 18.358c0.032     0.118 0.054 0.188 0.077 0.258l-0.013-0.047c-0.090 0.022-0.136     0.035-0.182 0.048l0.045-0.011c0.013-0.035 0.039-0.117     0.063-0.201l0.012-0.047z"
     id="path6" />
  <path
     d="m 21.748,15.554 c -2.163,10e-4 -3.986,1.535 -4.54,3.626 L 17.2,19.215 C 16.609,17.138 14.81,15.65 12.68,15.649 v 0 C 10.181,15.65 8.136,17.698 7.978,20.286 L 7.977,20.301 C 7.166,19.583 6.111,19.147 4.959,19.145 v 0 c 0,0 0,0 0,0 -2.603,0 -4.713,2.221 -4.713,4.96 v 0 c 0,0 0,0 0,0 0,2.739 2.11,4.96 4.713,4.96 0,0 0,0 0,0 v 0 c 0.638,-0.001 1.246,-0.135 1.8,-0.378 l -0.031,0.012 c 0.776,1.681 2.385,2.819 4.246,2.822 v 0 c 1.479,-0.001 2.799,-0.719 3.663,-1.841 l 0.007,-0.009 c 0.862,1.296 2.274,2.133 3.871,2.134 v 0 c 1.799,-0.001 3.363,-1.063 4.156,-2.624 l 0.012,-0.027 c 0.868,1.046 2.137,1.704 3.553,1.706 v 0 c 0,0 0,0 0,0 2.603,0 4.713,-2.221 4.713,-4.96 0,0 0,0 0,0 v 0 c -0.002,-2.663 -1.997,-4.835 -4.5,-4.952 h -0.01 c 0.012,-0.128 0.02,-0.278 0.021,-0.431 v -0.002 c 0,0 0,0 0,0 0,-2.739 -2.11,-4.96 -4.713,-4.96 0,0 0,0 0,0 v 0 z m -4.52,6.354 c 0.024,0.088 0.04,0.14 0.057,0.191 l -0.01,-0.035 C 17.208,22.08 17.174,22.09 17.14,22.1 l 0.033,-0.008 c 0.01,-0.026 0.029,-0.087 0.047,-0.149 l 0.009,-0.035 z"
     id="path8"
     inkscape:connector-curvature="0"
     style="opacity:0.94444401;fill:#e8e8e8" />
</svg>
