<!-- Generated by IcoMoon.io -->
<svg version="1.1" xmlns="http://www.w3.org/2000/svg" width="24" height="24" viewBox="0 0 24 24">
<title>wind</title>
<path d="M22.5 10.5c0-1.657-1.347-3-3-3-1.657 0-3 1.342-3 3h1.5c0-0.828 0.666-1.5 1.5-1.5 0.828 0 1.5 0.666 1.5 1.5 0 0.828-0.667 1.5-1.503 1.5h-17.247v1.5h17.251c1.656 0 2.999-1.347 2.999-3v0zM15.75 7.5c0-1.657-1.347-3-3-3-1.657 0-3 1.342-3 2.998v0.002h1.5c0-0.828 0.666-1.5 1.5-1.5 0.828 0 1.5 0.666 1.5 1.5 0 0.828-0.673 1.5-1.504 1.5h-8.996v1.5h9.003c1.655 0 2.997-1.347 2.997-3v0zM19.5 17.25c0 1.243-1.010 2.25-2.25 2.25v0c-1.243 0-2.25-1.007-2.25-2.244v-0.006h1.5c0 0.414 0.333 0.75 0.75 0.75v0c0.414 0 0.75-0.333 0.75-0.75v0c0-0.414-0.337-0.75-0.756-0.75h-10.494v-1.5h10.5c1.243 0 2.25 1.010 2.25 2.25v0 0z"></path>
</svg>
