<?xml version="1.0" standalone="no"?>
<!DOCTYPE svg PUBLIC "-//W3C//DTD SVG 20010904//EN"
 "http://www.w3.org/TR/2001/REC-SVG-20010904/DTD/svg10.dtd">
<svg version="1.0" xmlns="http://www.w3.org/2000/svg"
 width="848.000000pt" height="848.000000pt" viewBox="0 0 848.000000 848.000000"
 preserveAspectRatio="xMidYMid meet">
<metadata>
Created by potrace 1.11, written by Peter Selinger 2001-2013
</metadata>
<g transform="translate(0.000000,848.000000) scale(0.100000,-0.100000)"
fill="#000000" stroke="none">
<path d="M3388 6745 c-2 -1 -46 -5 -98 -9 -52 -3 -106 -8 -120 -10 -14 -2 -43
-7 -65 -10 -22 -3 -55 -10 -73 -15 -18 -5 -36 -10 -40 -11 -50 -6 -188 -53
-302 -103 -120 -52 -345 -187 -385 -231 -5 -7 -23 -22 -40 -35 -110 -84 -260
-255 -358 -407 -107 -165 -217 -433 -242 -588 -3 -17 -8 -44 -12 -61 -31 -149
-35 -444 -8 -585 3 -13 7 -41 10 -61 3 -20 10 -50 15 -68 5 -17 9 -35 10 -39
2 -22 25 -98 52 -176 31 -90 30 -105 -9 -106 -7 0 -13 -4 -13 -10 0 -5 -6 -10
-13 -10 -21 0 -112 -62 -164 -111 -51 -49 -103 -106 -103 -113 0 -2 -16 -28
-35 -58 -58 -87 -112 -248 -108 -315 1 -13 -2 -23 -7 -23 -4 0 -6 -10 -3 -22
3 -13 1 -19 -4 -13 -29 35 -190 128 -205 119 -4 -3 -8 -1 -8 3 0 14 -74 38
-155 49 -49 7 -185 11 -185 5 0 -3 -17 -6 -38 -5 -20 0 -43 -4 -49 -9 -7 -5
-13 -7 -13 -3 0 3 -17 0 -37 -8 -49 -18 -77 -27 -83 -27 -3 0 -12 -6 -20 -13
-8 -6 -28 -18 -45 -26 -64 -30 -187 -140 -235 -210 -13 -19 -27 -37 -30 -40
-18 -14 -92 -182 -86 -195 3 -9 2 -14 -3 -11 -13 9 -44 -170 -42 -249 4 -216
112 -463 255 -584 10 -9 29 -26 42 -38 13 -13 25 -23 28 -23 3 0 25 -13 49
-30 37 -24 85 -49 107 -55 3 0 14 -6 25 -12 19 -10 65 -21 110 -26 11 -2 25
-5 30 -9 11 -7 195 -3 251 5 16 2 40 10 52 16 12 6 22 9 22 6 0 -3 16 1 35 9
l35 15 14 -33 c35 -84 163 -230 257 -294 53 -36 172 -92 195 -92 8 0 24 -5 34
-10 36 -19 170 -27 267 -16 59 6 76 10 113 23 8 4 21 7 28 9 27 5 132 58 132
66 0 4 4 7 9 5 13 -3 92 56 139 105 23 24 50 51 59 61 17 18 18 18 33 -4 29
-44 116 -132 168 -171 94 -70 251 -136 315 -134 15 1 27 -1 27 -5 0 -8 181 -3
225 6 17 3 37 7 45 8 33 6 161 60 175 73 8 8 17 13 19 12 3 -2 15 5 26 15 11
9 24 17 29 17 4 0 40 31 79 69 l72 69 24 -19 c13 -10 29 -19 34 -19 6 0 12 -3
14 -8 4 -9 141 -82 166 -87 9 -2 37 -11 62 -20 25 -9 56 -18 70 -20 14 -3 41
-8 60 -12 19 -4 96 -7 170 -6 171 2 170 2 170 14 0 6 4 8 9 4 12 -7 102 14
115 26 6 5 17 9 26 9 21 0 177 81 227 117 62 45 72 54 155 138 88 89 75 87
125 15 56 -79 284 -270 323 -270 5 0 10 -4 10 -10 0 -5 8 -10 18 -10 10 0 22
-4 28 -8 11 -11 91 -42 119 -48 11 -2 31 -8 45 -13 88 -35 306 -39 450 -9 52
10 99 23 105 27 5 5 28 14 50 21 122 39 296 167 404 295 42 50 98 133 111 165
7 16 16 30 21 30 4 0 34 -26 66 -58 69 -68 132 -122 143 -122 4 0 18 -8 31
-19 42 -32 161 -89 234 -112 22 -6 47 -14 55 -17 8 -3 22 -7 30 -8 8 -1 33 -5
55 -9 54 -9 238 -14 249 -7 5 3 28 6 50 7 53 2 145 27 211 56 11 5 32 13 47
18 15 6 57 28 93 51 37 22 68 40 70 40 20 0 204 187 252 256 70 101 144 260
159 343 3 14 7 28 10 33 3 4 7 22 9 40 3 18 9 56 13 83 16 100 -4 405 -27 405
-3 0 -7 12 -8 26 -1 31 -63 194 -73 194 -4 0 -7 6 -7 13 0 18 -93 167 -104
167 -5 0 -9 6 -9 13 0 7 -8 20 -17 28 -10 9 -30 29 -44 45 -51 58 -182 162
-231 185 -13 5 -48 23 -78 39 -30 16 -60 29 -67 29 -6 1 -24 6 -40 12 -15 7
-35 13 -43 15 -8 1 -22 4 -30 7 -45 12 -115 23 -165 26 -19 1 -20 8 -21 94 0
102 -5 177 -13 191 -2 6 -6 19 -7 30 -9 89 -79 266 -148 376 -60 94 -224 270
-252 270 -3 0 -11 6 -19 13 -35 33 -57 47 -65 42 -6 -4 -10 -2 -10 4 0 10
-121 71 -170 86 -14 4 -31 13 -39 19 -12 9 -13 8 -7 -2 7 -12 5 -12 -15 -1
-13 8 -31 15 -39 16 -8 1 -26 4 -40 7 -87 21 -258 22 -360 4 -108 -20 -240
-68 -302 -110 -14 -10 -30 -18 -35 -18 -5 0 -24 -13 -43 -30 -19 -16 -40 -29
-47 -30 -7 0 -16 -6 -20 -13 -4 -7 -24 -25 -43 -41 -19 -16 -42 -39 -51 -52
-8 -13 -19 -21 -22 -17 -4 3 -7 2 -7 -3 0 -6 -8 -19 -17 -30 -35 -37 -78 -99
-75 -106 1 -5 -2 -8 -6 -8 -19 0 -116 -209 -128 -277 -3 -15 -7 -29 -9 -31 -1
-2 -17 34 -35 80 -18 46 -37 86 -44 90 -6 4 -7 8 -3 8 10 0 -31 71 -47 82 -6
4 -7 8 -3 8 7 0 -21 43 -76 114 -52 70 -202 206 -225 206 -6 0 -12 4 -14 9 -3
10 -173 101 -188 101 -5 0 -21 5 -37 12 -15 6 -32 10 -37 9 -4 -1 -13 3 -20 8
-6 5 -31 12 -56 15 -25 2 -45 5 -45 6 0 9 -236 14 -272 6 -11 -2 -42 -8 -67
-11 -26 -4 -49 -11 -52 -16 -3 -5 -9 -7 -14 -4 -5 3 -21 0 -37 -6 -15 -7 -34
-13 -42 -15 -47 -9 -226 -110 -265 -150 -9 -8 -16 -12 -16 -9 0 12 -164 -160
-190 -199 -14 -20 -31 -44 -38 -51 -7 -8 -24 -38 -38 -67 -14 -29 -29 -60 -34
-68 -13 -24 -48 -114 -54 -141 -3 -13 -12 -50 -20 -81 -8 -31 -11 -59 -9 -62
8 -8 -15 -14 -74 -19 l-51 -5 -21 56 c-29 82 -59 190 -65 240 -3 24 -8 47 -10
51 -11 18 -21 164 -21 306 1 155 4 193 30 340 16 88 60 240 92 315 115 270
262 480 463 665 57 53 226 181 265 201 52 26 90 49 95 55 3 3 12 8 20 11 31
11 -251 126 -355 145 -11 2 -36 8 -55 13 -91 24 -407 57 -422 45z m2089 -2917
c-3 -7 -5 -2 -5 12 0 14 2 19 5 13 2 -7 2 -19 0 -25z"/>
</g>
</svg>
