<?xml version="1.0" standalone="no"?>
<!DOCTYPE svg PUBLIC "-//W3C//DTD SVG 20010904//EN"
 "http://www.w3.org/TR/2001/REC-SVG-20010904/DTD/svg10.dtd">
<svg version="1.0" xmlns="http://www.w3.org/2000/svg"
 width="512.000000pt" height="512.000000pt" viewBox="0 0 512.000000 512.000000"
 preserveAspectRatio="xMidYMid meet">
<metadata>
Created by potrace 1.11, written by Peter Selinger 2001-2013
</metadata>
<g transform="translate(0.000000,512.000000) scale(0.100000,-0.100000)"
fill="#000000" stroke="none">
<path d="M1912 4567 c-49 -28 -56 -52 -56 -188 0 -77 5 -138 13 -156 30 -73
139 -74 174 -1 22 45 17 276 -6 312 -29 43 -81 57 -125 33z"/>
<path d="M603 4024 c-38 -19 -63 -68 -56 -108 8 -40 192 -226 225 -227 85 -4
134 45 120 121 -6 28 -193 220 -216 220 -8 0 -20 2 -28 5 -7 2 -27 -2 -45 -11z"/>
<path d="M3235 4026 c-32 -14 -187 -162 -204 -195 -42 -78 37 -170 118 -140
43 17 200 179 212 219 15 48 -9 96 -56 116 -40 16 -33 16 -70 0z"/>
<path d="M1837 3884 c-2 -2 -44 -9 -117 -20 -107 -16 -378 -123 -431 -170 -8
-8 -19 -14 -23 -14 -16 0 -135 -99 -213 -177 -136 -137 -265 -355 -308 -523
-53 -202 -63 -383 -31 -580 28 -177 131 -408 248 -553 l47 -60 -64 -63 c-35
-34 -80 -87 -100 -116 -35 -53 -90 -180 -100 -234 -2 -16 -7 -40 -10 -54 -11
-51 -5 -201 10 -262 60 -239 220 -410 460 -492 58 -19 87 -20 714 -23 481 -3
662 -1 682 8 17 7 35 27 46 50 l18 38 97 1 c95 0 98 -1 104 -24 14 -55 87 -88
141 -63 13 6 31 27 40 48 l18 38 97 1 c95 0 98 -1 104 -24 3 -13 17 -35 31
-48 l25 -23 601 -2 c678 -3 677 -3 827 70 69 33 101 58 170 127 133 133 189
261 195 445 3 108 -7 192 -31 258 -8 23 -17 50 -19 60 -4 16 -61 130 -77 152
-4 6 -31 39 -61 75 -153 186 -383 291 -623 285 l-92 -3 -7 55 c-23 188 -134
405 -272 534 -186 174 -394 256 -641 255 -91 -1 -93 -1 -98 24 -30 144 -104
317 -191 449 -65 99 -217 255 -314 323 -164 116 -356 193 -559 224 -42 6 -287
13 -293 8z m278 -208 c55 -8 207 -47 202 -52 -2 -2 -21 -6 -42 -8 -211 -28
-416 -121 -591 -267 -52 -43 -85 -64 -91 -58 -5 5 -23 13 -40 18 -43 12 -94
-14 -168 -87 -156 -154 -248 -352 -256 -554 -4 -98 27 -140 105 -140 l41 0 0
-81 c1 -154 39 -333 95 -447 35 -70 34 -76 -7 -78 -21 -1 -68 -10 -105 -19
l-68 -17 -37 44 c-172 200 -265 459 -258 717 8 290 116 536 327 742 145 143
378 259 573 285 27 4 50 8 52 9 5 5 222 -1 268 -7z m1405 -1055 c50 -17 107
-42 127 -55 l36 -25 -39 -6 c-186 -32 -360 -125 -477 -255 -38 -43 -120 -157
-129 -181 -2 -4 -37 -9 -79 -13 -290 -24 -525 -198 -629 -467 -16 -43 -30 -89
-30 -103 0 -37 -16 -40 -53 -12 -73 56 -213 105 -308 108 l-46 1 20 34 c10 19
17 36 14 39 -14 14 54 182 97 239 131 176 298 267 500 274 82 3 107 17 143 80
119 205 311 343 513 368 25 3 47 7 49 9 2 2 48 2 102 0 74 -4 120 -12 189 -35z
m1110 -893 c22 -13 40 -26 40 -29 0 -3 -20 -10 -45 -16 l-45 -10 0 38 c0 22 2
39 6 39 3 0 23 -10 44 -22z m-3057 -22 c58 -17 102 -39 164 -80 l33 -23 -61
-21 c-193 -66 -352 -241 -399 -440 -26 -111 -16 -261 24 -355 8 -20 12 -38 8
-41 -12 -7 -110 23 -163 50 -69 35 -143 105 -185 177 -153 261 -23 611 268
720 25 10 59 20 74 23 16 3 30 7 32 8 9 10 155 -4 205 -18z"/>
<path d="M81 2719 c-58 -12 -89 -62 -74 -119 16 -62 46 -74 191 -76 138 -2
179 9 201 49 28 54 10 117 -41 138 -32 13 -225 19 -277 8z"/>
</g>
</svg>
