<!-- Generated by IcoMoon.io -->
<svg version="1.1" xmlns="http://www.w3.org/2000/svg" width="32" height="32" viewBox="0 0 32 32">
<title>sun</title>
<path fill="#ffe680" d="M22.589 15.229l0.051 1.010-2.813 0.142-0.051-1.010zM21.312 12.035l0.525 0.865-2.408 1.463-0.525-0.865zM18.477 9.895l0.911 0.439-1.223 2.538-0.911-0.439zM15.059 9.479l1.010-0.051 0.142 2.813-1.010 0.051zM11.805 10.945l0.81-0.606 1.687 2.256-0.81 0.606zM9.807 13.712l0.439-0.911 2.538 1.223-0.439 0.911zM9.524 17.277l-0.149-1.001 2.786-0.416 0.149 1.001zM11 20.366l-0.602-0.813 2.264-1.676 0.602 0.813zM13.829 22.314l-0.915-0.432 1.204-2.547 0.915 0.432zM17.394 22.515l-1.001 0.149-0.416-2.786 1.001-0.149zM20.457 20.974l-0.813 0.602-1.676-2.264 0.813-0.602zM22.35 17.95l-0.341 0.952-2.652-0.95 0.341-0.952zM19.055 16.043c0 1.678-1.36 3.038-3.038 3.038s-3.038-1.36-3.038-3.038c0-1.678 1.36-3.038 3.038-3.038s3.038 1.36 3.038 3.038z"></path>
</svg>
