<?xml version="1.0" encoding="UTF-8" standalone="no"?>
<!-- Created with Inkscape (http://www.inkscape.org/) -->

<svg
   xmlns:dc="http://purl.org/dc/elements/1.1/"
   xmlns:cc="http://creativecommons.org/ns#"
   xmlns:rdf="http://www.w3.org/1999/02/22-rdf-syntax-ns#"
   xmlns:svg="http://www.w3.org/2000/svg"
   xmlns="http://www.w3.org/2000/svg"
   xmlns:sodipodi="http://sodipodi.sourceforge.net/DTD/sodipodi-0.dtd"
   xmlns:inkscape="http://www.inkscape.org/namespaces/inkscape"
   width="32mm"
   sodipodi:docname="sun2.svg"
   height="32mm"
   viewBox="0 0 32 32"
   version="1.1"
   id="svg8"
   inkscape:version="0.92.4 (5da689c313, 2019-01-14)">
  <defs
     id="defs2" />
  <sodipodi:namedview
     id="base"
     pagecolor="#ffffff"
     bordercolor="#666666"
     borderopacity="1.0"
     inkscape:pageopacity="0.0"
     inkscape:pageshadow="2"
     inkscape:zoom="4.5769231"
     inkscape:cx="65.294118"
     inkscape:cy="41.865546"
     inkscape:document-units="mm"
     inkscape:current-layer="layer1"
     showgrid="false"
     inkscape:window-width="2560"
     inkscape:window-height="1387"
     inkscape:window-x="-8"
     inkscape:window-y="22"
     inkscape:window-maximized="1" />
  <metadata
     id="metadata5">
    <rdf:RDF>
      <cc:Work
         rdf:about="">
        <dc:format>image/svg+xml</dc:format>
        <dc:type
           rdf:resource="http://purl.org/dc/dcmitype/StillImage" />
        <dc:title></dc:title>
      </cc:Work>
    </rdf:RDF>
  </metadata>
  <g
     inkscape:label="Layer 1"
     inkscape:groupmode="layer"
     id="layer1"
     transform="translate(0,-265)">
    <g
       id="g3716"
       transform="translate(8.1987199,-5.7584051)">
      <path
         id="path1831"
         style="stroke-width:0.14085948"
         d="m 5.5959392,288.99037 c 0.2171571,0.23978 0.2713353,0.54208 0.1214714,0.6778 l -1.0820415,0.97996 c -0.1498609,0.13572 -0.4453333,0.052 -0.6624905,-0.18783 -0.2171577,-0.23978 -0.2713322,-0.54208 -0.1214712,-0.6778 l 1.0820414,-0.97996 c 0.149864,-0.13572 0.4453327,-0.052 0.6624904,0.18783 z m 2.1970506,0.98524 c 0.3231019,0.016 0.5751715,0.19144 0.5651726,0.39338 l -0.072186,1.45805 c -0.01,0.20194 -0.2781633,0.35164 -0.6012652,0.33564 -0.3231057,-0.016 -0.5751736,-0.19145 -0.565176,-0.39338 l 0.072186,-1.45805 c 0.01,-0.20195 0.2781625,-0.35164 0.6012686,-0.33564 z m 2.2567872,-0.83836 c 0.239777,-0.21715 0.542077,-0.27133 0.677801,-0.12147 l 0.979956,1.08204 c 0.135722,0.14986 0.05195,0.44534 -0.187826,0.66249 -0.239781,0.21716 -0.542083,0.27134 -0.677805,0.12147 l -0.979956,-1.08203 c -0.1357248,-0.14987 -0.051951,-0.44534 0.18783,-0.6625 z m 1.020749,-2.18029 c 0.016,-0.32311 0.191445,-0.57517 0.393387,-0.56518 l 1.45805,0.0722 c 0.201938,0.01 0.351633,0.27816 0.335637,0.60126 -0.016,0.32311 -0.191447,0.57518 -0.393384,0.56518 l -1.45805,-0.0722 c -0.201943,-0.01 -0.351635,-0.27816 -0.33564,-0.60126 z m -0.807615,-2.27698 c -0.217475,-0.2395 -0.272297,-0.54161 -0.122666,-0.67761 l 1.080347,-0.98188 c 0.149625,-0.13599 0.445253,-0.0527 0.66284,0.18667 0.217476,0.2395 0.272293,0.54162 0.122668,0.6776 l -1.080349,0.98189 c -0.149628,0.13599 -0.445252,0.0527 -0.66284,-0.18667 z m -2.1524568,-1.04896 c -0.3230817,-0.0163 -0.5749715,-0.192 -0.5647765,-0.39393 l 0.073621,-1.45795 c 0.010198,-0.20193 0.2785031,-0.35135 0.6015852,-0.33504 0.3230822,0.0163 0.5749703,0.19201 0.5647765,0.39393 l -0.073621,1.45795 c -0.010194,0.20193 -0.2785027,0.35136 -0.6015852,0.33504 z m -2.2953781,0.7706 c -0.2394059,0.21759 -0.541615,0.2723 -0.6776085,0.12267 l -0.9818517,-1.08037 c -0.1359876,-0.14963 -0.052736,-0.44526 0.1866686,-0.66284 0.239406,-0.21759 0.5416178,-0.2723 0.6776086,-0.12268 l 0.9818514,1.08038 c 0.1359905,0.14963 0.052737,0.44526 -0.1866684,0.66284 z m -1.08402,2.13588 c -0.016315,0.32308 -0.1920074,0.57497 -0.3939367,0.56477 l -1.4579499,-0.0736 c -0.201924,-0.0102 -0.3513539,-0.2785 -0.3350389,-0.60158 0.016315,-0.32308 0.1920128,-0.57498 0.3939367,-0.56478 l 1.45795,0.0736 c 0.201926,0.0102 0.3513536,0.2785 0.3350388,0.60159 z m 5.2116442,0.26313 a 2.0446033,2.0446033 0 0 1 -2.0446025,2.04461 2.0446033,2.0446033 0 0 1 -2.0446032,-2.04461 2.0446033,2.0446033 0 0 1 2.0446032,-2.0446 2.0446033,2.0446033 0 0 1 2.0446025,2.0446 z"
         inkscape:connector-curvature="0" />
    </g>
  </g>
</svg>
